# Blender 4.1.1
# www.blender.org
mtllib blender-polyobj.mtl
o Cube
v 1.592845 1.613207 2.482422
v 1.030900 -1.030900 0.353204
v 2.120237 1.030900 -2.145272
v 1.030900 -1.030900 0.353204
v -2.120237 1.030900 0.991305
v -1.030900 -1.030900 0.353204
v -0.304839 2.193804 -0.852559
v 0.266723 -1.030900 -0.353204
vn -0.0896 -0.9886 -0.1211
vn 0.3161 0.4444 0.8382
vn 0.5878 0.1639 0.7922
vn -0.0000 1.0000 -0.0000
vn -0.9369 0.3173 -0.1467
vn 0.1656 0.5136 -0.8419
vt 0.625000 0.500000
vt 0.875000 0.500000
vt 0.875000 0.750000
vt 0.625000 0.750000
vt 0.375000 0.500000
vt 0.625000 1.000000
vt 0.375000 1.000000
vt 0.375000 0.000000
vt 0.625000 0.000000
vt 0.625000 0.250000
vt 0.375000 0.250000
vt 0.125000 0.500000
vt 0.125000 0.750000
s 0
usemtl Material
f 1/1/1 5/2/1 7/3/1 3/4/1
f 4/5/2 3/4/2 7/6/2 8/7/2
f 8/8/3 7/9/3 5/10/3 6/11/3
f 6/12/4 2/5/4 4/5/4 8/13/4
f 2/5/5 1/1/5 3/4/5 4/5/5
f 6/11/6 5/10/6 1/1/6 2/5/6
